<svg width="60" height="64" viewBox="0 0 60 64" fill="none" xmlns="http://www.w3.org/2000/svg">
<path d="M34.6704 29.2711C34.6704 29.7056 34.6966 31.4912 34.7586 31.8612C35.4234 35.6998 37.194 37.5212 41.0067 37.8602H45.4033C45.1555 41.8945 25.6055 54.9642 15.9854 48.908C14.62 48.0486 13.5834 46.9648 12.8327 45.7139C12.8256 45.7044 12.8208 45.6996 12.8208 45.6901C11.6746 43.7636 11.2004 41.4505 11.2552 38.9511C11.1861 32.9092 13.8479 25.4684 18.9951 18.7437C27.7264 7.33545 40.3038 2.30568 47.0857 7.51448C48.4107 8.5338 49.4187 9.86823 50.1145 11.4438C51.499 14.5781 56.265 13.4084 55.8456 10.0067C55.8241 9.83242 55.7908 9.65338 55.7431 9.46957C55.4166 8.21631 54.9019 6.97021 54.0988 5.93179C50.9867 1.89748 45.2151 -0.49208 37.6944 0.0856151C30.1737 0.665697 21.2828 5.32545 14.9488 11.2695C0.634239 24.5231 -6.63624 51.0517 8.05009 60.9202C10.4092 62.5077 13.8026 63.3575 16.6169 63.7538C27.612 65.3031 42.7868 59.4115 48.4774 49.7339L47.8125 53.5343C47.6219 54.6276 47.6767 55.7639 48.0556 56.8071C48.7681 58.7622 50.3266 60.0083 52.8883 60.1873C53.5984 60.2375 54.5874 60.2064 55.0806 60.1635L59.9538 32.711C60.2731 30.9183 58.8958 29.2735 57.0776 29.2735H34.6728L34.6704 29.2711Z" fill="#2E93CC"/>
</svg>