<svg width="80" height="91" viewBox="0 0 80 91" fill="none" xmlns="http://www.w3.org/2000/svg">
<path d="M30.6255 60.0696C30.6255 60.4565 30.6487 62.0468 30.7034 62.3764C31.2907 65.7951 32.8547 67.4173 36.2226 67.7192H40.1063C39.8874 71.3123 22.6182 82.9525 14.1204 77.5587C12.9143 76.7933 11.9986 75.828 11.3356 74.714C11.3293 74.7055 11.3251 74.7012 11.3251 74.6927C10.3126 72.977 9.89367 70.9168 9.94209 68.6908C9.88104 63.3097 12.2323 56.6828 16.779 50.6936C24.4916 40.5331 35.6016 36.0535 41.5924 40.6926C42.7627 41.6004 43.6531 42.7889 44.2678 44.1921C45.4908 46.9836 49.7007 45.9419 49.3302 42.9122C49.3113 42.757 49.2818 42.5975 49.2397 42.4338C48.9514 41.3177 48.4967 40.2078 47.7873 39.283C45.0382 35.6899 39.94 33.5617 33.2967 34.0763C26.6534 34.5929 18.7998 38.743 13.2048 44.0369C0.560247 55.8408 -5.86201 79.4679 7.11091 88.2571C9.19482 89.6709 12.1923 90.4278 14.6783 90.7807C24.3906 92.1605 37.795 86.9134 42.8217 78.2943L42.2344 81.679C42.066 82.6527 42.1144 83.6647 42.4491 84.5938C43.0785 86.3351 44.4551 87.4449 46.718 87.6044C47.3453 87.649 48.2188 87.6214 48.6546 87.5831L52.9592 63.1333C53.2413 61.5366 52.0246 60.0717 50.4185 60.0717H30.6276L30.6255 60.0696Z" fill="#2E93CC"/>
<path d="M49.3745 30.3878C49.3745 30.0076 49.3513 28.4452 49.2966 28.1214C48.7093 24.7627 47.1453 23.169 43.7774 22.8724H39.8937C40.1126 19.3423 57.3818 7.90631 65.8796 13.2055C67.0857 13.9575 68.0014 14.9058 68.6644 16.0003C68.6707 16.0087 68.6749 16.0128 68.6749 16.0212C69.6874 17.7068 70.1063 19.7308 70.0579 21.9178C70.119 27.2045 67.7677 33.7152 63.221 39.5992C55.5084 49.5815 44.3984 53.9825 38.4076 49.4248C37.2373 48.5329 36.3469 47.3653 35.7322 45.9867C34.5092 43.2442 30.2993 44.2676 30.6698 47.2441C30.6887 47.3966 30.7182 47.5533 30.7603 47.7141C31.0486 48.8107 31.5033 49.9011 32.2127 50.8097C34.9618 54.3397 40.06 56.4306 46.7033 55.9251C53.3466 55.4175 61.2002 51.3402 66.7952 46.1392C79.4398 34.5423 85.862 11.3298 72.8891 2.69482C70.8052 1.30579 67.8077 0.562183 65.3217 0.215446C55.6094 -1.14017 42.205 4.01492 37.1783 12.4828L37.7656 9.15748C37.934 8.20082 37.8856 7.20657 37.5509 6.29377C36.9215 4.58307 35.5449 3.49273 33.282 3.33607C32.6547 3.29221 31.7812 3.31936 31.3454 3.35696L27.0408 27.3778C26.7587 28.9465 27.9754 30.3857 29.5815 30.3857H49.3724L49.3745 30.3878Z" fill="#2E93CC"/>
</svg>