<svg width="229" height="84" viewBox="0 0 229 84" fill="none" xmlns="http://www.w3.org/2000/svg">
<path d="M191.828 83.3589C190.124 83.3589 188.664 83.2332 187.452 82.9887C186.24 82.7407 185.388 82.5267 184.896 82.35L185.633 78.0494C185.908 76.4494 187.293 75.2808 188.915 75.2808H190.752C192.052 75.2808 193.186 75.0328 194.15 74.5402C195.114 74.0443 195.922 73.4056 196.574 72.6209C197.222 71.8362 197.772 70.9937 198.224 70.0969L190.416 34.6082H196.791C199.633 34.6082 202.057 36.6701 202.518 39.4761L204.212 49.8268C204.392 50.8154 204.559 51.8922 204.718 53.0608C204.874 54.2294 205.03 55.3742 205.19 56.4952C205.346 57.6196 205.468 58.6727 205.56 59.6613H206.032C206.344 58.8969 206.67 58.102 207.006 57.2697C207.342 56.4409 207.689 55.6086 208.048 54.7763C208.408 53.9474 208.754 53.1491 209.091 52.3848C209.427 51.6239 209.753 50.9037 210.065 50.2311L215.554 38.4298C216.641 36.0995 218.976 34.6082 221.546 34.6082H228.706L210.737 68.6838C209.661 70.7492 208.493 72.6685 207.237 74.4417C205.981 76.215 204.599 77.7742 203.099 79.1228C201.595 80.4715 199.911 81.5144 198.051 82.2549C196.187 82.9955 194.113 83.3657 191.825 83.3657L191.828 83.3589Z" fill="#2E93CC"/>
<path d="M186.58 62.8855C185.548 62.8855 184.818 62.6613 184.394 62.2129C183.966 61.7645 183.756 61.136 183.756 60.3276C183.756 60.0592 183.79 59.6889 183.858 59.2167C183.925 58.7445 183.98 58.3063 184.027 57.9021L184.486 55.2898L189.435 28.3411C189.812 26.1942 188.162 24.2307 185.986 24.2307H183.362C180.911 24.2307 178.813 25.9938 178.389 28.4091L175.181 45.8494L172.855 59.0435C172.675 60.2562 172.539 61.2312 172.451 61.9717C172.36 62.7123 172.315 63.3068 172.315 63.7552C172.315 65.328 172.651 66.6392 173.324 67.6957C173.996 68.7522 175.007 69.5471 176.352 70.0872C177.696 70.6274 179.404 70.8957 181.468 70.8957C182.184 70.8957 182.992 70.8516 183.892 70.7598C184.788 70.6681 185.684 70.5254 186.584 70.3216C186.594 70.3216 186.601 70.3182 186.611 70.3148C187.975 70.0057 189.021 68.9017 189.265 67.5225L190.084 62.8787H186.584L186.58 62.8855Z" fill="#2E93CC"/>
<path d="M159.775 70.8991C157.711 70.8991 156.007 70.6308 154.659 70.0906C153.311 69.5505 152.303 68.7556 151.631 67.6991C150.959 66.646 150.623 65.3314 150.623 63.7586C150.623 63.3102 150.667 62.7157 150.758 61.9751C150.847 61.2346 150.982 60.2562 151.162 59.0469L154.055 42.6154H148.168C147.832 39.1335 146.671 36.6027 144.274 34.6019H155.806L158.553 27.6685C159.374 25.5929 161.377 24.2307 163.607 24.2307H163.899C166.174 24.2307 167.898 26.2859 167.505 28.5246L166.439 34.6019H171.521C173.5 34.6019 174.997 36.3887 174.654 38.3386L173.9 42.6154H165.03L162.338 57.9021C162.294 58.3063 162.236 58.7445 162.168 59.2167C162.1 59.6889 162.066 60.0592 162.066 60.3276C162.066 61.1361 162.28 61.7645 162.704 62.2129C163.129 62.6613 163.859 62.8855 164.891 62.8855H168.391L167.569 67.5395C167.325 68.9153 166.279 70.0125 164.918 70.3216L164.891 70.3284C163.991 70.5322 163.095 70.6749 162.199 70.7666C161.302 70.855 160.494 70.9025 159.775 70.9025V70.8991Z" fill="#2E93CC"/>
<path d="M107.19 70.0905L112.951 37.4314C113.24 35.7941 114.662 34.6017 116.322 34.6017H119.062C120.942 34.6017 122.467 36.127 122.467 38.0089V39.721H122.938C123.926 38.4641 125.07 37.3975 126.37 36.521C127.671 35.6446 129.073 34.972 130.577 34.4998C132.08 34.0276 133.595 33.7932 135.119 33.7932C137.363 33.7932 139.267 34.1397 140.839 34.8361C142.407 35.5325 143.619 36.5652 144.471 37.9342C145.323 39.3032 145.751 41.0425 145.751 43.152C145.751 43.8246 145.707 44.5312 145.615 45.2718C145.524 46.0123 145.415 46.7869 145.279 47.5954L141.307 70.0871H135.098C132.58 70.0871 130.672 67.8111 131.11 65.3312L134.039 48.7401C134.083 48.3359 134.141 47.9452 134.209 47.5614C134.277 47.1809 134.311 46.831 134.311 46.5185C134.311 45.6217 134.141 44.8675 133.805 44.2629C133.469 43.6582 132.987 43.2098 132.359 42.9142C131.731 42.6221 130.967 42.476 130.071 42.476C129.083 42.476 128.119 42.6459 127.178 42.9822C126.238 43.3185 125.406 43.8246 124.69 44.4972C123.97 45.1699 123.356 45.9784 122.84 46.9227C122.324 47.8637 121.974 48.9202 121.798 50.0888L118.95 66.065C118.535 68.392 116.512 70.0871 114.146 70.0871H107.193L107.19 70.0905Z" fill="#2E93CC"/>
<path d="M104.148 34.6017C102.502 34.6017 100.974 35.4578 100.115 36.8641L98.8696 38.9091H98.3977C97.7255 37.6964 96.8938 36.7215 95.9094 35.9809C94.9215 35.2403 93.791 34.69 92.5112 34.3299C91.2314 33.9699 89.8293 33.7932 88.3051 33.7932C85.4331 33.7932 82.8565 34.4454 80.565 35.7465C78.2769 37.0476 76.3589 39.0246 74.8143 41.6709C73.2629 44.3206 72.129 47.6871 71.4161 51.7737C71.2362 52.8506 71.1004 53.8731 71.0121 54.8378C70.9239 55.806 70.8763 56.7334 70.8763 57.6302C70.8763 60.5041 71.3822 62.9295 72.3904 64.9066C73.3987 66.8803 74.8482 68.375 76.7323 69.3873C78.6164 70.3962 80.84 70.9024 83.3962 70.9024C85.5927 70.9024 87.6804 70.4404 89.6528 69.5232C91.6286 68.6026 93.3327 67.2642 94.7687 65.5147H95.2406L95.1964 66.262C95.0437 68.7521 97.0194 70.8582 99.5146 70.8616C101.548 70.865 103.527 70.8616 103.728 70.8446L109.845 37.5537C110.127 36.0183 108.949 34.6017 107.387 34.6017H104.152H104.148ZM96.6868 49.5215C96.663 49.9019 96.6189 50.3707 96.551 50.9346C96.4831 51.4951 96.3575 52.2255 96.1809 53.1223C95.9535 54.4709 95.5936 55.7041 95.1048 56.8251C94.6092 57.9495 94.0015 58.9142 93.2886 59.7193C92.5689 60.5278 91.7372 61.1563 90.7968 61.6047C89.8531 62.0565 88.8245 62.2807 87.7042 62.2807C85.6843 62.2807 84.2381 61.7983 83.3623 60.8336C82.4864 59.8654 82.0485 58.4624 82.0485 56.6247C82.0485 56.3529 82.0587 56.0064 82.0825 55.5784C82.1028 55.1503 82.1707 54.6034 82.2861 53.9274C82.3948 53.2548 82.5645 52.3376 82.792 51.1656C83.1518 49.2803 83.6678 47.6769 84.34 46.352C85.0122 45.0272 85.9118 44.0387 87.032 43.3898C88.1557 42.7376 89.5442 42.4149 91.2042 42.4149C92.5044 42.4149 93.5568 42.6595 94.3681 43.1554C95.1761 43.6514 95.7702 44.358 96.1504 45.2752C96.5306 46.1958 96.7241 47.2862 96.7241 48.5397C96.7241 48.8115 96.7139 49.1376 96.6935 49.5181L96.6868 49.5215Z" fill="#2E93CC"/>
<path d="M40.863 34.459C40.863 34.9686 40.8936 37.0747 40.9683 37.5061C41.7524 42.0276 43.8402 44.1677 48.3315 44.5686H53.5119C53.22 49.3176 30.1763 64.7062 18.8412 57.5758C17.232 56.5635 16.0099 55.2896 15.1239 53.8153C15.1171 53.8051 15.1103 53.7983 15.1103 53.7881C13.7592 51.5223 13.1991 48.7945 13.2669 45.8526C13.1855 38.7393 16.3222 29.9783 22.3887 22.0632C32.6782 8.63138 47.5032 2.71036 55.4945 8.8454C57.056 10.0445 58.2442 11.6174 59.0658 13.4722C60.6986 17.1613 66.3136 15.7855 65.8213 11.7804C65.7976 11.5732 65.7568 11.3626 65.6991 11.1486C65.3121 9.67427 64.7078 8.20675 63.7607 6.98382C60.0944 2.23477 53.2913 -0.581364 44.4275 0.101439C35.5638 0.784242 25.0841 6.27044 17.619 13.2683C0.747047 28.8709 -7.82134 60.1032 9.48857 71.7244C12.2689 73.5928 16.2679 74.5949 19.588 75.0603C32.5458 76.8845 50.4328 69.9478 57.1409 58.5541L56.3567 63.028C56.1327 64.3155 56.1972 65.6505 56.6453 66.8803C57.4838 69.1835 59.3237 70.651 62.3417 70.8616C63.1802 70.9193 64.3446 70.882 64.9251 70.8344L70.6691 38.5151C71.0425 36.4055 69.4232 34.4658 67.2811 34.4658H40.8732L40.863 34.459Z" fill="#2E93CC"/>
</svg>